<?xml version="1cd.0" standalone="no"?><!DOCTYPE svg PUBLIC "-//W3C//DTD SVG 1.1//EN" "http://www.w3.org/Graphics/SVG/1.1/DTD/svg11.dtd"><svg t="1587753866389" class="icon" viewBox="0 0 1024 1024" version="1.1" xmlns="http://www.w3.org/2000/svg" p-id="1383" xmlns:xlink="http://www.w3.org/1999/xlink" width="200" height="200"><defs><style type="text/css"></style></defs><path d="M824 953H184c-52.9 0-96-43.1-96-96V425c0-52.9 43.1-96 96-96h640c52.9 0 96 43.1 96 96v432c0 52.9-43.1 96-96 96zM184 393c-17.6 0-32 14.4-32 32v432c0 17.6 14.4 32 32 32h640c17.6 0 32-14.4 32-32V425c0-17.6-14.4-32-32-32H184z" fill="#3688FF" p-id="1384"></path><path d="M744 393H264c-17.7 0-32-14.3-32-32v-32c0-72.7 28.3-141 79.7-192.3S431.3 57 504 57c72.7 0 141 28.3 192.3 79.7S776 256.3 776 329v32c0 17.7-14.3 32-32 32z m-448-64h416c0-114.7-93.3-208-208-208s-208 93.3-208 208zM504 793c-17.7 0-32-14.3-32-32V505c0-17.7 14.3-32 32-32s32 14.3 32 32v256c0 17.7-14.3 32-32 32z" fill="#3688FF" p-id="1385"></path></svg>